<?xml version="1.0" standalone="no"?>
<!DOCTYPE svg PUBLIC "-//W3C//DTD SVG 20010904//EN"
 "http://www.w3.org/TR/2001/REC-SVG-20010904/DTD/svg10.dtd">
<svg version="1.0" xmlns="http://www.w3.org/2000/svg"
 width="131.000000pt" height="122.000000pt" viewBox="0 0 131.000000 122.000000"
 preserveAspectRatio="xMidYMid meet">

<g transform="translate(0.000000,122.000000) scale(0.100000,-0.100000)"
fill="#000000" stroke="none">
<path d="M0 610 l0 -610 655 0 655 0 0 610 0 610 -655 0 -655 0 0 -610z m1288
541 c-2 -5 -46 -86 -98 -181 -79 -142 -96 -166 -98 -143 -2 15 -7 32 -12 36
-4 5 21 60 56 123 35 63 64 116 64 119 0 3 -243 5 -540 5 -297 0 -540 -2 -540
-5 0 -3 29 -56 64 -119 35 -63 60 -118 56 -123 -5 -4 -10 -21 -12 -36 -2 -23
-19 1 -98 143 -52 95 -96 176 -98 181 -2 5 250 9 628 9 378 0 630 -4 628 -9z
m-898 -501 c40 -110 76 -202 80 -205 3 -2 40 88 80 201 l74 204 36 0 35 0 75
-205 c41 -113 78 -201 82 -197 4 4 36 88 72 187 35 99 67 188 71 198 7 16 65
26 65 11 0 -4 -41 -121 -92 -260 -89 -246 -93 -254 -119 -254 -29 0 -24 -12
-150 338 -18 50 -36 92 -39 92 -3 0 -21 -42 -39 -92 -126 -350 -121 -338 -150
-338 -26 0 -30 8 -119 254 -51 139 -92 256 -92 260 0 3 13 6 29 6 28 0 30 -3
101 -200z m354 -483 c-37 -67 -72 -128 -77 -135 -7 -9 -30 23 -84 122 -66 120
-73 137 -61 155 7 12 16 21 20 21 4 0 30 -43 58 -95 28 -52 55 -95 60 -95 5 0
33 44 62 99 l52 98 19 -23 c18 -24 18 -24 -49 -147z"/>
</g>
</svg>
